<?xml version="1.0" encoding="UTF-8"?>
<svg id="Camada_2" data-name="Camada 2" xmlns="http://www.w3.org/2000/svg" xmlns:xlink="http://www.w3.org/1999/xlink" viewBox="0 0 257.21 167.85">
  <defs>
    <style>
      .cls-1 {
        fill: #0b1226;
        font-family: ArialRoundedMTBold, 'Arial Rounded MT Bold';
        font-size: 8.4px;
      }

      .cls-2 {
        fill: url(#Gradiente_sem_nome_9-6);
      }

      .cls-2, .cls-3, .cls-4, .cls-5, .cls-6, .cls-7, .cls-8 {
        stroke-width: 0px;
      }

      .cls-9 {
        letter-spacing: -.01em;
      }

      .cls-10 {
        letter-spacing: 0em;
      }

      .cls-3 {
        fill: url(#Gradiente_sem_nome_9-5);
      }

      .cls-11 {
        letter-spacing: -.06em;
      }

      .cls-4 {
        fill: url(#Gradiente_sem_nome_9-3);
      }

      .cls-12 {
        letter-spacing: -.04em;
      }

      .cls-5 {
        fill: url(#Gradiente_sem_nome_9-4);
      }

      .cls-13 {
        letter-spacing: -.02em;
      }

      .cls-14 {
        letter-spacing: .01em;
      }

      .cls-6 {
        fill: url(#Gradiente_sem_nome_9);
      }

      .cls-7 {
        fill: url(#Gradiente_sem_nome_9-7);
      }

      .cls-8 {
        fill: url(#Gradiente_sem_nome_9-2);
      }

      .cls-15 {
        letter-spacing: -.02em;
      }
    </style>
    <linearGradient id="Gradiente_sem_nome_9" data-name="Gradiente sem nome 9" x1="21.64" y1="-19.04" x2="300.28" y2="160.96" gradientUnits="userSpaceOnUse">
      <stop offset="0" stop-color="#1b3ce9"/>
      <stop offset="1" stop-color="#182d9e"/>
    </linearGradient>
    <linearGradient id="Gradiente_sem_nome_9-2" data-name="Gradiente sem nome 9" x1="-47.63" y1="88.28" x2="231.01" y2="268.28" xlink:href="#Gradiente_sem_nome_9"/>
    <linearGradient id="Gradiente_sem_nome_9-3" data-name="Gradiente sem nome 9" x1="-32.6" y1="65.02" x2="246.04" y2="245.02" xlink:href="#Gradiente_sem_nome_9"/>
    <linearGradient id="Gradiente_sem_nome_9-4" data-name="Gradiente sem nome 9" x1="-18.64" y1="43.41" x2="260" y2="223.41" xlink:href="#Gradiente_sem_nome_9"/>
    <linearGradient id="Gradiente_sem_nome_9-5" data-name="Gradiente sem nome 9" x1="-8.68" y1="28" x2="269.96" y2="208" xlink:href="#Gradiente_sem_nome_9"/>
    <linearGradient id="Gradiente_sem_nome_9-6" data-name="Gradiente sem nome 9" x1="4.8" y1="7.12" x2="283.44" y2="187.12" xlink:href="#Gradiente_sem_nome_9"/>
    <linearGradient id="Gradiente_sem_nome_9-7" data-name="Gradiente sem nome 9" x1="17.79" y1="-12.98" x2="296.43" y2="167.02" xlink:href="#Gradiente_sem_nome_9"/>
  </defs>
  <g id="Camada_1-2" data-name="Camada 1">
    <path class="cls-6" d="M167.35,62.56c-.84-.3-1.16-.73-1.15-1.66.03-7.16.04-14.33-.01-21.5,0-1.03.36-1.52,1.31-1.81,2.03-.61,3.54-1.94,4.57-3.76,2.15-3.79,1.29-8.4-2.01-11.08-3.27-2.65-7.87-2.57-11.15.26-.61.52-1.02.63-1.75.18-1.78-1.12-3.64-2.11-5.46-3.17-4.64-2.67-9.27-5.35-13.91-8.03-.54-.32-.92-.59-.74-1.37,1.16-5.06-2.05-9.83-7.18-10.54-6.38-.89-10.84,4.88-9.69,10.14.21,1.01-.01,1.44-.81,1.89-6.37,3.64-12.73,7.3-19.05,10.99-.78.45-1.25.49-1.96-.15-2.65-2.34-6.57-2.86-9.57-1.2-3.27,1.82-4.97,4.64-4.64,8.45.33,3.68,2.29,6.17,5.78,7.39.9.32,1.2.79,1.2,1.75-.04,7.17-.04,14.34,0,21.51,0,.97-.33,1.43-1.24,1.72-3.54,1.19-5.79,4.36-5.92,8.08.2.98.26,2.02.6,2.95,2.19,6.02,9.6,7.55,13.99,3.44.55-.52.95-.44,1.54-.08,1.81,1.09,3.64,2.11,5.47,3.17,4.64,2.67,9.27,5.34,13.91,8.02.57.34,1.03.62.78,1.47-.74,2.52-.1,4.85,1.35,6.95,2.22,3.21,6.55,4.49,10.13,3.07,3.8-1.51,6.26-5.36,5.48-9.23-.33-1.57.25-2.07,1.35-2.7,6.1-3.48,12.21-6.99,18.28-10.55.92-.54,1.44-.51,2.28.18,2.88,2.39,6.19,2.72,9.46,1.03,3.23-1.67,4.87-4.51,4.6-8.21-.26-3.78-2.27-6.35-5.85-7.61ZM164.69,24.11c2.96.01,5.33,2.41,5.33,5.41-.01,2.9-2.48,5.39-5.4,5.4-2.89.02-5.41-2.49-5.42-5.39,0-3.01,2.43-5.42,5.48-5.42ZM135.99,14.7c6.44,3.74,12.9,7.47,19.37,11.16.77.44,1,.9.82,1.83-.88,4.51,1.4,8.4,5.76,9.96.78.27,1.15.68,1.1,1.56-.07,1.3-.02,2.61-.02,3.92s-.03,2.69.02,4.04c.03.96-.26,1.4-1.3,1.33-1.05-.07-2.11-.11-3.16,0-1.21.12-1.64-.39-1.74-1.53-.35-3.92-1.54-7.59-3.56-10.96-4.77-7.96-11.73-12.71-20.98-14.01-2.02-.29-2.02-.25-2.02-2.28,0-.38.04-.76-.01-1.13-.15-1.07.3-1.53,1.33-1.9,1.08-.39,2.06-1.11,2.98-1.82.52-.39.81-.52,1.42-.17ZM130.31,68.65c.02-.35.46-.94.76-.97,3.05-.37,6.1-.63,9.47-.96-.36,1.01-.63,1.91-.98,2.79-1.72,4.26-2.32,4.78-6.92,5.42-2.78.39-2.37.42-2.37-1.97-.01-1.44-.05-2.87.03-4.3ZM131.45,64.35c-.87.11-1.21-.23-1.19-1.14.05-1.72.02-3.45.02-5.19s.03-3.37-.02-5.06c-.02-.91.25-1.28,1.22-1.27,3.41.04,6.83.04,10.25,0,.98-.01,1.29.37,1.17,1.28-.39,3.05-.73,6.1-1.18,9.13-.05.4-.61.97-1,1.03-3.08.45-6.18.81-9.27,1.2ZM130.28,42.1c-.01-1.73.02-3.46-.02-5.19-.02-.84.32-1.17,1.13-1.07,3.14.39,6.27.75,9.4,1.21.36.05.88.58.94.95.44,3.08.8,6.18,1.19,9.26.13.97-.33,1.23-1.25,1.21-3.37-.04-6.75-.04-10.13,0-1.02.02-1.32-.37-1.29-1.33.06-1.69.02-3.38.02-5.06ZM130.26,26.14c-.02-.84.3-1.19,1.13-1.01,1.72.37,3.47.65,5.16,1.16.6.17,1.24.76,1.53,1.33.92,1.83,1.68,3.73,2.65,5.92-2.6-.27-4.72-.52-6.84-.74-.8-.08-1.61-.21-2.4-.21-.91,0-1.28-.31-1.24-1.27.06-1.72.04-3.45,0-5.19ZM149.15,36.1c-1.5-.5-3-.97-4.49-1.5-.21-.06-.44-.3-.51-.51-.52-1.48-.99-2.98-1.36-4.55,2.7,1.58,4.78,3.77,6.55,6.27-.06.1-.13.19-.19.29ZM151.76,41.02c.33.16.6.63.69,1,.45,1.84.88,3.68,1.19,5.53.04.25-.51.87-.79.88-1.93.08-3.88.06-5.81.01-.27,0-.76-.35-.78-.58-.35-3.13-.64-6.25-.99-9.85,2.34,1.08,4.44,2.01,6.49,3.01ZM144.16,66.08c.06-.18.24-.39.41-.44,1.52-.54,3.06-1.03,4.67-1.42-1.59,2.68-3.76,4.75-6.24,6.51-.11-.05-.21-.12-.31-.17.49-1.5.96-3,1.47-4.48ZM145.48,62.03c-.1-.11-.2-.21-.3-.32.16-.97.37-1.94.48-2.93.2-1.92.39-3.85.5-5.79.05-.94.31-1.35,1.34-1.31,1.72.07,3.45.05,5.17.01.87-.02,1.17.32.99,1.14-.36,1.68-.62,3.39-1.11,5.04-.19.63-.79,1.33-1.39,1.64-1.85.93-3.78,1.69-5.68,2.51ZM128.62,3.26c3.05-.01,5.39,2.28,5.41,5.31.03,2.93-2.43,5.44-5.33,5.46-2.91.01-5.39-2.45-5.4-5.39,0-3.05,2.28-5.36,5.32-5.39ZM101.06,27.37c-.18-.95.39-1.19.95-1.52,5.29-3.05,10.59-6.09,15.88-9.15,1.13-.65,2.28-1.29,3.38-1.97.55-.34.88-.31,1.44.1,1.07.78,2.29,1.34,3.42,2.05.36.22.83.57.87.9.12,1.09.15,2.2,0,3.27-.03.32-.72.68-1.16.8-2.76.76-5.65,1.15-8.27,2.23-6.99,2.84-12.02,7.89-14.93,14.83-1.1,2.61-1.56,5.48-2.19,8.27-.22.94-.48,1.42-1.53,1.33-1.13-.1-2.28-.06-3.41-.01-.97.05-1.27-.36-1.24-1.27.05-1.35.01-2.69.01-4.04s.04-2.7-.01-4.04c-.03-.76.24-1.14.94-1.43,4.85-1.95,6.77-5.29,5.85-10.34ZM127.07,74.07c.02.84-.3,1.18-1.12,1-1.69-.36-3.41-.61-5.05-1.12-.68-.21-1.39-.84-1.72-1.48-.93-1.81-1.66-3.71-2.55-5.77.62,0,.91-.02,1.18.01,2.72.3,5.44.63,8.16.89.81.07,1.11.34,1.09,1.15-.04,1.77-.04,3.54,0,5.31ZM127.05,58.12c0,1.68-.03,3.37.01,5.06.02.84-.23,1.29-1.15,1.16-3.09-.39-6.19-.74-9.27-1.19-.39-.05-.97-.61-1.03-.99-.45-3.08-.8-6.18-1.19-9.26-.11-.88.25-1.2,1.14-1.19,3.42.03,6.84.04,10.25,0,.93-.01,1.29.29,1.27,1.24-.05,1.72-.02,3.45-.02,5.19ZM127.06,47.37c.02.82-.3,1.12-1.11,1.12-3.51-.03-7.01-.02-10.51-.01-.75.01-1.13-.26-1.03-1.03.39-3.18.76-6.36,1.2-9.52.05-.34.55-.82.9-.87,3.16-.45,6.34-.82,9.52-1.21.78-.1,1.05.27,1.03,1.02-.02,1.77-.01,3.54-.01,5.31s-.02,3.46.01,5.19ZM113.12,34.18c-.06.17-.26.36-.43.42-1.49.51-2.99.99-4.49,1.48-.06-.11-.13-.21-.18-.31,1.75-2.49,3.84-4.64,6.63-6.18-.51,1.53-1,3.06-1.53,4.58ZM112.09,37.98c-.29,2.7-.53,4.94-.77,7.18-.02.21-.04.41-.06.62q-.29,2.69-3.06,2.69c-1.18,0-2.37-.01-3.54.01-.73.02-1.18-.19-1.01-1.01.38-1.81.76-3.61,1.18-5.41.08-.35.3-.81.58-.95,2.12-1.05,4.28-2.02,6.68-3.14ZM104.56,51.7c1.85.01,3.71-.03,5.55.04.34.01.91.4.95.68.38,3.04.69,6.09,1,9.15.01.06-.08.14-.31.5-2.09-.96-4.16-1.87-6.19-2.86-.35-.18-.65-.7-.75-1.11-.44-1.78-.8-3.6-1.18-5.41-.15-.72.22-.99.92-.98ZM108.21,64.12c1.47.48,2.94.94,4.4,1.45.21.07.45.29.53.5.52,1.49,1,2.99,1.37,4.57-2.69-1.58-4.77-3.75-6.52-6.26.07-.08.14-.17.21-.25ZM127.03,31.57c-.01.34-.4.91-.68.94-3.04.39-6.1.69-9.16,1-.06.01-.14-.07-.52-.29.98-2.11,1.94-4.28,3.02-6.38.19-.36.83-.57,1.31-.68,1.68-.4,3.37-.73,5.06-1.06.7-.14,1,.18,1,.9-.02,1.85.02,3.71-.04,5.55ZM87.29,29.5c.02-2.99,2.41-5.39,5.35-5.4,3.06,0,5.45,2.39,5.44,5.43-.01,2.93-2.49,5.41-5.4,5.38-2.91-.02-5.41-2.52-5.4-5.41ZM92.63,76.08c-2.96-.01-5.33-2.41-5.34-5.4,0-2.89,2.49-5.38,5.41-5.4,2.9-.01,5.39,2.47,5.39,5.39.01,3.04-2.39,5.41-5.45,5.41ZM121.43,85.52c-6.55-3.74-13.07-7.52-19.61-11.28-.61-.35-.9-.71-.74-1.51.93-4.78-1.18-8.51-5.73-10.19-.79-.3-1.11-.7-1.09-1.57.06-2.57.08-5.14,0-7.71-.04-1.25.39-1.7,1.59-1.55.5.06,1.01.01,1.52.01q2.83,0,3.23,2.8c1.77,12.16,11.93,22.1,24.19,23.68,2.77.36,2.21.19,2.25,2.58.01.46.12.97-.03,1.38-.16.43-.48.91-.87,1.16-1.14.76-2.33,1.45-3.55,2.09-.33.17-.89.27-1.17.12ZM128.61,96.94c-3.03-.02-5.31-2.34-5.31-5.41.01-2.93,2.48-5.39,5.41-5.36,2.89.01,5.36,2.55,5.32,5.46-.03,3.04-2.38,5.33-5.42,5.31ZM156.2,72.85c.06.41-.33,1.12-.71,1.34-3.83,2.29-7.72,4.5-11.58,6.73-2.59,1.5-5.2,2.97-7.76,4.5-.64.38-1,.35-1.63-.14-.97-.76-2.13-1.29-3.22-1.9-.15-.08-.37-.07-.48-.19-1.13-1.21-.33-2.7-.49-4.07-.02-.21.75-.71,1.18-.76,5-.6,9.6-2.23,13.67-5.22,6.6-4.87,10.56-11.33,11.63-19.51q.25-1.93,2.24-1.93c.93,0,1.86.04,2.79-.01.87-.05,1.28.27,1.18,1.15v4.18c0,1.34-.03,2.69.02,4.04.03.75-.25,1.13-.94,1.42-4.85,1.94-6.72,5.32-5.9,10.36ZM164.64,76.08c-3.04-.01-5.45-2.43-5.44-5.45.02-2.88,2.57-5.38,5.46-5.34,2.93.04,5.36,2.51,5.35,5.44-.02,2.99-2.4,5.35-5.38,5.35Z"/>
    <g>
      <path class="cls-8" d="M30.4,137.5H13.5l-2.5,5.23c-.35.73-.52,1.3-.52,1.72,0,.8.61,1.35,1.82,1.66v.87H0v-.87c.73-.15,1.28-.4,1.66-.76.38-.36.82-1.07,1.31-2.12l13.68-28.58c.44-.91.65-1.64.65-2.18,0-.83-.53-1.44-1.58-1.8v-.87h13.19v.87c-1.07.31-1.61.85-1.61,1.61,0,.53.17,1.13.52,1.8l14.17,28.66c.6,1.22,1.13,2.05,1.58,2.49.45.45,1.06.74,1.83.89v.87h-13.69v-.87c1.2-.2,1.8-.76,1.8-1.69,0-.38-.18-.94-.54-1.69l-2.56-5.23ZM28.07,132.4l-6.03-13.25-6.13,13.25h12.16Z"/>
      <path class="cls-4" d="M83.15,112.94l-4.44,8.76-.76-.44c.02-.18.03-.33.03-.44,0-.62-.53-1.28-1.58-1.99-3.23-2.25-7.03-3.38-11.39-3.38-1.93,0-3.62.24-5.09.71-1.07.36-1.94.91-2.6,1.63-.66.73-.99,1.52-.99,2.37,0,1.4.84,2.35,2.53,2.86.87.25,2.74.53,5.61.82l4.28.44c2.54.27,4.6.64,6.17,1.12,1.57.47,2.96,1.13,4.18,1.99,1.23.89,2.21,2.06,2.93,3.51s1.08,3,1.08,4.66c0,2.61-.84,4.94-2.53,6.97-1.53,1.85-3.9,3.22-7.11,4.11-2.4.67-4.97,1.01-7.71,1.01-4.92,0-9.78-1.18-14.58-3.54-1.02-.47-1.63-.71-1.83-.71-.24,0-.61.2-1.12.6l-.79-.41,4.03-9.13.79.38v.35c0,.82.39,1.57,1.17,2.26,1.18,1.05,3.01,1.96,5.48,2.72,2.47.76,4.81,1.14,7.03,1.14,2.42,0,4.48-.41,6.18-1.22.94-.45,1.7-1.06,2.26-1.81.56-.75.84-1.54.84-2.35,0-1.23-.66-2.11-1.99-2.64-.93-.36-2.8-.7-5.61-1.01l-4.2-.43c-2.82-.29-4.8-.57-5.97-.83-1.16-.26-2.33-.69-3.49-1.27-1.65-.82-2.95-2.04-3.9-3.68-.85-1.47-1.28-3.16-1.28-5.07,0-3.14,1.08-5.74,3.24-7.8,2.83-2.71,7.08-4.06,12.75-4.06,2.38,0,4.6.24,6.65.72,2.05.48,4.61,1.37,7.68,2.67,1.05.42,1.7.63,1.93.63.38,0,.83-.21,1.34-.63l.76.41Z"/>
      <path class="cls-5" d="M109.3,115.92v28.2c0,.56.13.99.38,1.28.25.29.71.53,1.36.71v.87h-11.61v-.87c.65-.18,1.11-.42,1.36-.71.25-.29.38-.72.38-1.28v-28.2h-11.55c-.54,0-.96.12-1.25.37s-.53.71-.71,1.37h-.87v-9.62h.87c.2.66.44,1.12.72,1.37s.7.38,1.24.38h31.19c.56,0,.99-.12,1.28-.38.29-.25.53-.71.71-1.37h.87v9.62h-.87c-.18-.66-.42-1.12-.71-1.37-.29-.25-.72-.37-1.28-.37h-11.52Z"/>
      <path class="cls-3" d="M137.25,130.66v10.19h23.92c.54,0,.96-.13,1.25-.38s.53-.71.71-1.36h.87v9.62h-.87c-.18-.65-.42-1.11-.71-1.36s-.71-.38-1.25-.38h-33.78v-.87c.65-.18,1.11-.42,1.36-.71.25-.29.38-.72.38-1.28v-31.47c0-.56-.13-.99-.38-1.28-.25-.29-.71-.53-1.36-.71v-.87h33.13c.55,0,.96-.13,1.25-.39.29-.26.53-.71.71-1.35h.87v9.62h-.87c-.18-.65-.42-1.1-.71-1.36-.29-.26-.71-.39-1.25-.39h-23.27v8.83h15.09c.54,0,.96-.13,1.25-.38.29-.25.53-.71.71-1.36h.87v9.4h-.87c-.18-.63-.42-1.09-.71-1.35-.29-.26-.71-.39-1.25-.39h-15.09Z"/>
      <path class="cls-2" d="M205.83,134.2l5.18,7.75-.71.49c-.51-.47-.93-.71-1.25-.71s-1.24.44-2.75,1.31c-3.12,1.8-5.75,3.02-7.89,3.65-2.13.63-4.67.94-7.61.94-5.87,0-10.68-1.39-14.44-4.17-2.22-1.62-3.96-3.62-5.23-6.02-1.47-2.74-2.21-5.77-2.21-9.07,0-4.5,1.32-8.42,3.95-11.74,3.96-4.99,9.94-7.49,17.95-7.49,2.94,0,5.47.31,7.57.93,2.11.62,4.74,1.84,7.9,3.65,1.51.85,2.42,1.28,2.75,1.28s.74-.24,1.25-.71l.71.49-5.18,7.76-.74-.49c.04-.29.05-.53.05-.73,0-.52-.23-1.02-.68-1.48-.45-.46-1.26-1.02-2.42-1.67-3.21-1.81-6.62-2.71-10.22-2.71-4.25,0-7.64,1.06-10.16,3.18-2.98,2.49-4.47,5.73-4.47,9.74s1.49,7.26,4.47,9.74c2.52,2.12,5.91,3.18,10.16,3.18,3.6,0,7-.91,10.22-2.72,1.16-.65,1.97-1.21,2.42-1.67s.68-.96.68-1.49c0-.2-.02-.44-.05-.71l.74-.52Z"/>
      <path class="cls-7" d="M247.35,130.74h-21.44v13.4c0,.54.13.97.4,1.27.26.3.71.53,1.35.69v.87h-11.61v-.87c.65-.18,1.11-.42,1.36-.71.25-.29.38-.71.38-1.25v-31.52c0-.54-.13-.96-.38-1.25-.25-.29-.71-.53-1.36-.71v-.87h11.61v.87c-.65.16-1.11.4-1.36.7-.25.3-.38.72-.38,1.27v11.99h21.44v-11.99c0-.54-.13-.97-.38-1.27-.25-.3-.71-.53-1.36-.7v-.87h11.61v.87c-.65.18-1.11.42-1.36.71-.26.29-.38.71-.38,1.25v31.52c0,.54.13.96.38,1.25.25.29.71.53,1.36.71v.87h-11.61v-.87c.64-.16,1.09-.39,1.35-.69.26-.3.39-.72.39-1.27v-13.4Z"/>
    </g>
    <text class="cls-1" transform="translate(47.85 166.07)"><tspan class="cls-11" x="0" y="0">T</tspan><tspan x="4.72" y="0">ecnologia, </tspan><tspan class="cls-15" x="49.44" y="0">R</tspan><tspan class="cls-9" x="55.27" y="0">e</tspan><tspan class="cls-10" x="60.15" y="0">pa</tspan><tspan class="cls-12" x="70.39" y="0">r</tspan><tspan class="cls-10" x="73.75" y="0">o e Supo</tspan><tspan class="cls-14" x="109.01" y="0">r</tspan><tspan x="112.79" y="0">te 24 Ho</tspan><tspan class="cls-13" x="146.39" y="0">r</tspan><tspan x="149.86" y="0">as </tspan></text>
  </g>
</svg>